v 0.909219 1.55866 0
v 0.898996 1.61549 0
v 0.930265 1.61549 0
v 0.974163 1.55866 0
v 0.786643 1.55866 -0.462018
v 0.777798 1.61549 -0.456823
v 0.804852 1.61549 -0.472713
v 0.842831 1.55866 -0.495019
v 0.462018 1.55866 -0.786643
v 0.456823 1.61549 -0.777798
v 0.472713 1.61549 -0.804852
v 0.495019 1.55866 -0.842831
v 0 1.55866 -0.909219
v 0 1.61549 -0.898996
v 0 1.61549 -0.930265
v 0 1.55866 -0.974163
v -0.487996 1.55866 -0.786643
v -0.46452 1.61549 -0.777798
v -0.473675 1.61549 -0.804852
v -0.495019 1.55866 -0.842831
v -0.799631 1.55866 -0.462018
v -0.781647 1.61549 -0.456823
v -0.805333 1.61549 -0.472713
v -0.842831 1.55866 -0.495019
v -0.909219 1.55866 0
v -0.898996 1.61549 0
v -0.930265 1.61549 0
v -0.974163 1.55866 0
v -0.786643 1.55866 0.462018
v -0.777798 1.61549 0.456823
v -0.804852 1.61549 0.472713
v -0.842831 1.55866 0.495019
v -0.462018 1.55866 0.786643
v -0.456823 1.61549 0.777798
v -0.472713 1.61549 0.804852
v -0.495019 1.55866 0.842831
v 0 1.55866 0.909219
v 0 1.61549 0.898996
v 0 1.61549 0.930265
v 0 1.55866 0.974163
v 0.462018 1.55866 0.786643
v 0.456823 1.61549 0.777798
v 0.472713 1.61549 0.804852
v 0.495019 1.55866 0.842831
v 0.786643 1.55866 0.462018
v 0.777798 1.61549 0.456823
v 0.804852 1.61549 0.472713
v 0.842831 1.55866 0.495019
v 1.13051 1.21951 0
v 1.25078 0.891179 0
v 1.29888 0.584498 0
v 0.978101 1.21951 -0.574467
v 1.08215 0.891179 -0.63558
v 1.12378 0.584498 -0.660025
v 0.574467 1.21951 -0.978101
v 0.63558 0.891179 -1.08215
v 0.660025 0.584498 -1.12378
v 0 1.21951 -1.13051
v 0 0.891179 -1.25078
v 0 0.584498 -1.29888
v -0.574467 1.21951 -0.978101
v -0.63558 0.891179 -1.08215
v -0.660025 0.584498 -1.12378
v -0.978101 1.21951 -0.574467
v -1.08215 0.891179 -0.63558
v -1.12378 0.584498 -0.660025
v -1.13051 1.21951 0
v -1.25078 0.891179 0
v -1.29888 0.584498 0
v -0.978101 1.21951 0.574467
v -1.08215 0.891179 0.63558
v -1.12378 0.584498 0.660025
v -0.574467 1.21951 0.978101
v -0.63558 0.891179 1.08215
v -0.660025 0.584498 1.12378
v 0 1.21951 1.13051
v 0 0.891179 1.25078
v 0 0.584498 1.29888
v 0.574467 1.21951 0.978101
v 0.63558 0.891179 1.08215
v 0.660025 0.584498 1.12378
v 0.978101 1.21951 0.574467
v 1.08215 0.891179 0.63558
v 1.12378 0.584498 0.660025
v 1.2147 0.339153 0
v 1.05835 0.180401 0
v 0.974163 0.0974163 0
v 1.05094 0.339153 -0.617246
v 0.915669 0.180401 -0.537799
v 0.842831 0.0974163 -0.495019
v 0.617246 0.339153 -1.05094
v 0.537799 0.180401 -0.915669
v 0.495019 0.0974163 -0.842831
v 0 0.339153 -1.2147
v 0 0.180401 -1.05835
v 0 0.0974163 -0.974163
v -0.617246 0.339153 -1.05094
v -0.537799 0.180401 -0.915669
v -0.495019 0.0974163 -0.842831
v -1.05094 0.339153 -0.617246
v -0.915669 0.180401 -0.537799
v -0.842831 0.0974163 -0.495019
v -1.2147 0.339153 0
v -1.05835 0.180401 0
v -0.974163 0.0974163 0
v -1.05094 0.339153 0.617246
v -0.915669 0.180401 0.537799
v -0.842831 0.0974163 0.495019
v -0.617246 0.339153 1.05094
v -0.537799 0.180401 0.915669
v -0.495019 0.0974163 0.842831
v 0 0.339153 1.2147
v 0 0.180401 1.05835
v 0 0.0974163 0.974163
v 0.617246 0.339153 1.05094
v 0.537799 0.180401 0.915669
v 0.495019 0.0974163 0.842831
v 1.05094 0.339153 0.617246
v 0.915669 0.180401 0.537799
v 0.842831 0.0974163 0.495019
v 0.927259 0.0505122 0
v 0.663874 0.014432 0
v 0 0 0
v 0.802251 0.0505122 -0.471185
v 0.574374 0.014432 -0.337346
v 0.471185 0.0505122 -0.802251
v 0.337346 0.014432 -0.574374
v 0 0.0505122 -0.927259
v 0 0.014432 -0.663874
v -0.471185 0.0505122 -0.802251
v -0.337346 0.014432 -0.574374
v -0.802251 0.0505122 -0.471185
v -0.574374 0.014432 -0.337346
v -0.927259 0.0505122 0
v -0.663874 0.014432 0
v -0.802251 0.0505122 0.471185
v -0.574374 0.014432 0.337346
v -0.471185 0.0505122 0.802251
v -0.337346 0.014432 0.574374
v 0 0.0505122 0.927259
v 0 0.014432 0.663874
v 0.471185 0.0505122 0.802251
v 0.337346 0.014432 0.574374
v 0.802251 0.0505122 0.471185
v 0.574374 0.014432 0.337346
v -1.03911 1.31512 0
v -1.42637 1.30971 0
v -1.66931 1.27182 0
v -1.75349 1.169 0
v -1.02227 1.353 -0.129888
v -1.44944 1.34619 -0.129888
v -1.71358 1.29848 -0.129888
v -1.80401 1.169 -0.129888
v -0.991 1.42336 -0.129888
v -1.49229 1.41394 -0.129888
v -1.79581 1.34799 -0.129888
v -1.89781 1.169 -0.129888
v -0.974163 1.46124 0
v -1.51536 1.45042 0
v -1.84009 1.37465 0
v -1.94833 1.169 0
v -0.991 1.42336 0.129888
v -1.49229 1.41394 0.129888
v -1.79581 1.34799 0.129888
v -1.89781 1.169 0.129888
v -1.02227 1.353 0.129888
v -1.44944 1.34619 0.129888
v -1.71358 1.29848 0.129888
v -1.80401 1.169 0.129888
v -1.70779 0.984987 0
v -1.56107 0.768506 0
v -1.29888 0.584498 0
v -1.7502 0.959263 -0.129888
v -1.5804 0.73109 -0.129888
v -1.28205 0.533986 -0.129888
v -1.82895 0.911491 -0.129888
v -1.6163 0.661602 -0.129888
v -1.25078 0.440177 -0.129888
v -1.87136 0.885767 0
v -1.63563 0.624186 0
v -1.23394 0.389665 0
v -1.82895 0.911491 0.129888
v -1.6163 0.661602 0.129888
v -1.25078 0.440177 0.129888
v -1.7502 0.959263 0.129888
v -1.5804 0.73109 0.129888
v -1.28205 0.533986 0.129888
v 1.10405 0.925455 0
v 1.47447 1.04632 0
v 1.59955 1.3079 0
v 1.75349 1.55866 0
v 1.10405 0.786547 -0.285755
v 1.51937 0.957459 -0.239732
v 1.65568 1.2747 -0.154262
v 1.85452 1.55866 -0.10824
v 1.10405 0.528574 -0.285755
v 1.60276 0.792426 -0.239732
v 1.75991 1.21303 -0.154262
v 2.04213 1.55866 -0.10824
v 1.10405 0.389665 0
v 1.64766 0.703562 0
v 1.81603 1.17982 0
v 2.14316 1.55866 0
v 1.10405 0.528574 0.285755
v 1.60276 0.792426 0.239732
v 1.75991 1.21303 0.154262
v 2.04213 1.55866 0.10824
v 1.10405 0.786547 0.285755
v 1.51937 0.957459 0.239732
v 1.65568 1.2747 0.154262
v 1.85452 1.55866 0.10824
v 1.81363 1.59113 0
v 1.8449 1.59113 0
v 1.81844 1.55866 0
v 1.92089 1.59394 -0.0970154
v 1.93688 1.59464 -0.0761691
v 1.88579 1.55866 -0.0649442
v 2.12009 1.59915 -0.0970154
v 2.1077 1.60116 -0.0761691
v 2.01086 1.55866 -0.0649442
v 2.22735 1.60196 0
v 2.19968 1.60466 0
v 2.07821 1.55866 0
v 2.12009 1.59915 0.0970154
v 2.1077 1.60116 0.0761691
v 2.01086 1.55866 0.0649442
v 1.92089 1.59394 0.0970154
v 1.93688 1.59464 0.0761691
v 1.88579 1.55866 0.0649442
v 0 2.04574 0
v 0.235723 1.99162 0
v 0.153942 1.87256 0
v 0.129888 1.75349 0
v 0.204073 1.99162 -0.120039
v 0.133252 1.87256 -0.0783535
v 0.112378 1.75349 -0.0660026
v 0.120039 1.99162 -0.204073
v 0.0783535 1.87256 -0.133252
v 0.0660026 1.75349 -0.112378
v 0 1.99162 -0.235723
v 0 1.87256 -0.153942
v 0 1.75349 -0.129888
v -0.120039 1.99162 -0.204073
v -0.0783535 1.87256 -0.133252
v -0.0660026 1.75349 -0.112378
v -0.204073 1.99162 -0.120039
v -0.133252 1.87256 -0.0783535
v -0.112378 1.75349 -0.0660026
v -0.235723 1.99162 0
v -0.153942 1.87256 0
v -0.129888 1.75349 0
v -0.204073 1.99162 0.120039
v -0.133252 1.87256 0.0783535
v -0.112378 1.75349 0.0660026
v -0.120039 1.99162 0.204073
v -0.0783535 1.87256 0.133252
v -0.0660026 1.75349 0.112378
v 0 1.99162 0.235723
v 0 1.87256 0.153942
v 0 1.75349 0.129888
v 0.120039 1.99162 0.204073
v 0.0783535 1.87256 0.133252
v 0.0660026 1.75349 0.112378
v 0.204073 1.99162 0.120039
v 0.133252 1.87256 0.0783535
v 0.112378 1.75349 0.0660026
v 0.372828 1.68133 0
v 0.687927 1.63082 0
v 0.844275 1.55866 0
v 0.322565 1.68133 -0.189452
v 0.595185 1.63082 -0.349569
v 0.730454 1.55866 -0.429017
v 0.189452 1.68133 -0.322565
v 0.349569 1.63082 -0.595185
v 0.429017 1.55866 -0.730454
v 0 1.68133 -0.372828
v 0 1.63082 -0.687927
v 0 1.55866 -0.844275
v -0.189452 1.68133 -0.322565
v -0.349569 1.63082 -0.595185
v -0.429017 1.55866 -0.730454
v -0.322565 1.68133 -0.189452
v -0.595185 1.63082 -0.349569
v -0.730454 1.55866 -0.429017
v -0.372828 1.68133 0
v -0.687927 1.63082 0
v -0.844275 1.55866 0
v -0.322565 1.68133 0.189452
v -0.595185 1.63082 0.349569
v -0.730454 1.55866 0.429017
v -0.189452 1.68133 0.322565
v -0.349569 1.63082 0.595185
v -0.429017 1.55866 0.730454
v 0 1.68133 0.372828
v 0 1.63082 0.687927
v 0 1.55866 0.844275
v 0.189452 1.68133 0.322565
v 0.349569 1.63082 0.595185
v 0.429017 1.55866 0.730454
v 0.322565 1.68133 0.189452
v 0.595185 1.63082 0.349569
v 0.730454 1.55866 0.429017
# 302 verticies
vn -0.893481 -0.176801 0.412835
vn -0.980495 -0.176385 -0.0867104
vn -0.980495 -0.176385 0.0867103
vn -0.805643 -0.177069 0.56532
vn 0.357335 0.899716 -0.250644
vn 0.43575 0.899242 -0.0385357
vn 0 1 0
vn 0.737903 0.51981 -0.430462
vn 0.854999 0.518605 -0.00494515
vn -0.56532 -0.177069 0.805643
vn -0.412835 -0.176801 0.893481
vn 0.183148 0.89955 -0.396569
vn 0.421718 0.519882 -0.742884
vn -0.0880166 -0.176365 0.980382
vn 0.0796941 -0.201282 0.976286
vn -0.0385538 0.899031 -0.436184
vn -0.00494515 0.518605 -0.854999
vn 0.394633 -0.272166 0.877605
vn 0.54729 -0.309362 0.777669
vn -0.251958 0.898706 -0.35895
vn -0.430977 0.518288 -0.738672
vn 0.778944 -0.331396 0.532375
vn 0.883456 -0.262924 0.387784
vn -0.397847 0.898909 -0.183521
vn -0.74413 0.517446 -0.422516
vn 0.971587 -0.225329 0.0724265
vn 0.979739 -0.176249 -0.0951187
vn -0.435759 0.899232 0.0386761
vn -0.855461 0.517843 0.00493586
vn 0.893481 -0.176801 -0.412835
vn 0.805643 -0.177069 -0.56532
vn -0.357335 0.899716 0.250644
vn -0.737903 0.51981 0.430462
vn 0.56532 -0.177069 -0.805643
vn 0.412835 -0.176801 -0.893481
vn -0.183148 0.89955 0.396569
vn -0.421718 0.519882 0.742884
vn 0.0867104 -0.176385 -0.980495
vn -0.0867103 -0.176385 -0.980495
vn 0.0385357 0.899242 0.43575
vn 0.00494515 0.518605 0.854999
vn -0.412835 -0.176801 -0.893481
vn -0.56532 -0.177069 -0.805643
vn 0.250644 0.899716 0.357335
vn 0.430462 0.51981 0.737903
vn -0.805643 -0.177069 -0.56532
vn -0.893481 -0.176801 -0.412835
vn 0.396569 0.89955 0.183148
vn 0.742884 0.519882 0.421718
vn 0.800048 0.382711 -0.462013
vn 0.924307 0.381647 -0.00128745
vn 0.837763 0.251513 -0.484659
vn 0.968036 0.250804 -0.0020407
vn 0.8642 -0.0881446 -0.495367
vn 0.996146 -0.0876967 0.0017976
vn 0.459731 0.382753 -0.801341
vn 0.481037 0.251642 -0.839809
vn 0.49856 -0.0877846 -0.862399
vn -0.00128745 0.381647 -0.924307
vn -0.00204071 0.250804 -0.968036
vn 0.00179761 -0.0876967 -0.996146
vn -0.462013 0.382711 -0.800048
vn -0.484659 0.251513 -0.837763
vn -0.495367 -0.0881446 -0.8642
vn -0.801341 0.382753 -0.459731
vn -0.839809 0.251642 -0.481037
vn -0.862399 -0.0877846 -0.49856
vn -0.924307 0.381647 0.00128745
vn -0.968036 0.250804 0.00204071
vn -0.996146 -0.0876967 -0.00179761
vn -0.800048 0.382711 0.462013
vn -0.837763 0.251513 0.484659
vn -0.8642 -0.0881446 0.495367
vn -0.459731 0.382753 0.801341
vn -0.481037 0.251642 0.839809
vn -0.49856 -0.0877846 0.862399
vn 0.00128745 0.381647 0.924307
vn 0.00204071 0.250804 0.968036
vn -0.00179761 -0.0876967 0.996146
vn 0.462013 0.382711 0.800048
vn 0.484659 0.251513 0.837763
vn 0.495367 -0.0881446 0.8642
vn 0.801341 0.382753 0.459731
vn 0.839809 0.251642 0.481037
vn 0.862399 -0.0877846 0.49856
vn 0.740751 -0.528702 -0.414443
vn 0.849524 -0.527454 0.0100945
vn 0.612255 -0.708129 -0.351706
vn 0.707261 -0.706953 0.000447761
vn 0.609573 -0.710818 -0.350941
vn 0.704558 -0.709646 -0.00021809
vn 0.432285 -0.528569 -0.730578
vn 0.352495 -0.708128 -0.611802
vn 0.350557 -0.710818 -0.609793
vn 0.0100945 -0.527454 -0.849524
vn 0.000447756 -0.706953 -0.707261
vn -0.000218087 -0.709646 -0.704558
vn -0.414443 -0.528702 -0.740751
vn -0.351706 -0.708129 -0.612255
vn -0.350941 -0.710818 -0.609573
vn -0.730578 -0.528569 -0.432285
vn -0.611802 -0.708128 -0.352495
vn -0.609793 -0.710818 -0.350557
vn -0.849524 -0.527454 -0.0100945
vn -0.707261 -0.706953 -0.000447756
vn -0.704558 -0.709646 0.000218087
vn -0.740751 -0.528702 0.414443
vn -0.612255 -0.708129 0.351706
vn -0.609573 -0.710818 0.350941
vn -0.432285 -0.528569 0.730578
vn -0.352495 -0.708128 0.611802
vn -0.350557 -0.710818 0.609793
vn -0.0100945 -0.527454 0.849524
vn -0.000447756 -0.706953 0.707261
vn 0.000218087 -0.709646 0.704558
vn 0.414443 -0.528702 0.740751
vn 0.351706 -0.708129 0.612255
vn 0.350941 -0.710818 0.609573
vn 0.730578 -0.528569 0.432285
vn 0.611802 -0.708128 0.352495
vn 0.609793 -0.710818 0.350557
vn 0.395645 -0.897065 -0.196822
vn 0.441973 -0.896642 0.0263213
vn 0.0816767 -0.995913 -0.0385405
vn 0.0902471 -0.995893 0.00721074
vn 0 -1 0
vn 0.24292 -0.897195 -0.368825
vn 0.0511218 -0.995925 -0.0742896
vn 0.0263213 -0.896642 -0.441973
vn 0.00721074 -0.995893 -0.0902472
vn -0.196822 -0.897065 -0.395645
vn -0.0385405 -0.995913 -0.0816767
vn -0.368825 -0.897195 -0.24292
vn -0.0742896 -0.995925 -0.0511218
vn -0.441973 -0.896642 -0.0263213
vn -0.0902472 -0.995893 -0.00721074
vn -0.395645 -0.897065 0.196822
vn -0.0816767 -0.995913 0.0385405
vn -0.24292 -0.897195 0.368825
vn -0.0511218 -0.995925 0.0742896
vn -0.0263213 -0.896642 0.441973
vn -0.00721074 -0.995893 0.0902472
vn 0.196822 -0.897065 0.395645
vn 0.0385405 -0.995913 0.0816767
vn 0.368825 -0.897195 0.24292
vn 0.0742896 -0.995925 0.0511218
vn 0.0413982 -0.596702 -0.801395
vn 0.0884784 -0.996066 0.00497371
vn 0.0145681 -0.995461 -0.0940462
vn 0.00619754 -0.388463 -0.921443
vn 0.228608 -0.513802 -0.826889
vn 0.50645 -0.862268 0.00140671
vn 0.505667 -0.190184 -0.841505
vn 0.978079 -0.208084 0.00789356
vn -0.0918071 0.591641 -0.800957
vn -0.0150936 0.778168 -0.627875
vn -0.390527 0.389319 -0.834218
vn -0.548416 -0.00396355 -0.836196
vn -0.121356 0.992607 -0.00204362
vn -0.0195067 0.995335 0.0944913
vn -0.599912 0.800044 0.00585094
vn -0.993201 0.116358 -0.0036355
vn -0.0500069 0.594968 0.802192
vn -0.00730167 0.388527 0.921409
vn -0.259498 0.492262 0.830867
vn -0.527901 0.13643 0.838277
vn 0.0699802 -0.597858 0.798542
vn 0.0116455 -0.778158 0.627961
vn 0.35229 -0.439412 0.826323
vn 0.544726 -0.018141 0.838418
vn 0.523835 0.207454 -0.826172
vn 0.909438 0.415584 0.0145705
vn 0.428425 0.391412 -0.814401
vn 0.703723 0.710133 0.0220348
vn 0.439057 0.644483 -0.625995
vn 0.563413 0.819085 0.108005
vn -0.480844 -0.307246 -0.821211
vn -0.357237 -0.474048 -0.804774
vn -0.203996 -0.336752 -0.91923
vn -0.880086 -0.474692 -0.0107604
vn -0.636366 -0.771232 -0.0154745
vn -0.506081 -0.856108 -0.1047
vn -0.515444 -0.223607 0.827235
vn -0.395089 -0.424848 0.814499
vn -0.395519 -0.665105 0.633403
vn 0.504761 0.273794 0.81869
vn 0.387968 0.452885 0.802731
vn 0.218502 0.33074 0.918078
vn -0.202617 0.521535 -0.828823
vn -0.661402 0.750017 0.00458671
vn -0.316073 0.938935 -0.136014
vn -0.0478235 0.350638 -0.935289
vn -0.444932 0.375744 -0.812928
vn -0.862752 0.502454 -0.0565529
vn -0.337769 0.485438 -0.806388
vn -0.652305 0.757869 -0.0114912
vn 0.535951 -0.245282 -0.807832
vn 0.39088 -0.617742 -0.682355
vn 0.514807 -0.175382 -0.839175
vn 0.320569 -0.303589 -0.897256
vn 0.77579 -0.630985 -0.00277428
vn 0.494567 -0.858225 0.137306
vn 0.876769 -0.477729 0.0552411
vn 0.634198 -0.773092 0.0110758
vn 0.471237 -0.319518 0.822097
vn 0.248666 -0.295625 0.922373
vn 0.550525 -0.150734 0.821097
vn 0.377317 -0.23781 0.89503
vn -0.322876 0.404738 0.855534
vn -0.191579 0.68158 0.706219
vn -0.354246 0.375239 0.856566
vn -0.258784 0.515025 0.817178
vn -0.171284 0.920775 -0.350478
vn -0.227598 0.971601 0.0647339
vn 0.114359 0.754754 0.645964
vn -0.0134522 0.999888 0.00659722
vn 0.45785 0.094958 0.883944
vn 0.716845 -0.648532 -0.256007
vn 0.724075 -0.64524 0.243682
vn 0.138408 0.711972 -0.688432
vn -0.136282 0.950165 0.28038
vn -0.0595103 0.921468 0.38387
vn 0.472426 -0.866255 -0.162529
vn -0.138092 0.987799 -0.0719916
vn 0.0779563 0.996407 0.0331015
vn -0.265919 0.959056 0.097456
vn 0.30423 0.610449 0.731298
vn -0.0522786 0.914527 -0.401132
vn -0.15265 0.911217 -0.382598
vn -0.0904607 0.883873 0.458895
vn 0.315696 0.697078 -0.643753
vn 0.168045 0.610406 -0.774058
vn 0.193296 0.974852 -0.110906
vn 0.223771 0.974642 0
vn 1.27616e-009 1 0
vn 0.79404 -0.3925 -0.46416
vn 0.920371 -0.390985 -0.0068741
vn 0.822092 -0.564739 -0.0723502
vn 0.674697 -0.566828 -0.472748
vn 0.756429 0.526904 -0.38754
vn 0.849293 0.526385 0.0402392
vn 0.110906 0.974852 -0.193296
vn 0.452557 -0.392632 -0.800645
vn 0.344946 -0.566051 -0.748731
vn 0.459265 0.526402 -0.715526
vn 0 0.974642 -0.223771
vn -0.0068741 -0.390985 -0.920371
vn -0.0723502 -0.564739 -0.822092
vn 0.0402392 0.526385 -0.849293
vn -0.110906 0.974852 -0.193296
vn -0.46416 -0.3925 -0.79404
vn -0.472748 -0.566828 -0.674697
vn -0.38754 0.526904 -0.756429
vn -0.193296 0.974852 -0.110906
vn -0.800645 -0.392632 -0.452557
vn -0.748731 -0.566051 -0.344946
vn -0.715526 0.526402 -0.459265
vn -0.223771 0.974642 0
vn -0.920371 -0.390985 0.0068741
vn -0.822092 -0.564739 0.0723502
vn -0.849293 0.526385 -0.0402392
vn -0.193296 0.974852 0.110906
vn -0.79404 -0.3925 0.46416
vn -0.674697 -0.566828 0.472748
vn -0.756429 0.526904 0.38754
vn -0.110906 0.974852 0.193296
vn -0.452557 -0.392632 0.800645
vn -0.344946 -0.566051 0.748731
vn -0.459265 0.526402 0.715526
vn 0 0.974642 0.223771
vn 0.0068741 -0.390985 0.920371
vn 0.0723502 -0.564739 0.822092
vn -0.0402392 0.526385 0.849293
vn 0.110906 0.974852 0.193296
vn 0.46416 -0.3925 0.79404
vn 0.472748 -0.566828 0.674697
vn 0.38754 0.526904 0.756429
vn 0.193296 0.974852 0.110906
vn 0.800645 -0.392632 0.452557
vn 0.748731 -0.566051 0.344946
vn 0.715526 0.526402 0.459265
vn 0.194636 0.975198 -0.105383
vn 0.221911 0.975051 0.00558376
vn 0.245632 0.956932 -0.154746
vn 0.291025 0.956645 -0.0115708
vn 0.380962 0.907719 -0.175823
vn 0.41877 0.907337 0.0370341
vn 0.115133 0.975219 -0.188922
vn 0.134525 0.956879 -0.257461
vn 0.240529 0.907981 -0.343098
vn 0.00558376 0.975051 -0.221911
vn -0.0115708 0.956645 -0.291025
vn 0.0370341 0.907337 -0.41877
vn -0.105383 0.975198 -0.194636
vn -0.154746 0.956932 -0.245632
vn -0.175823 0.907719 -0.380962
vn -0.188922 0.975219 -0.115133
vn -0.257461 0.956879 -0.134525
vn -0.343098 0.907981 -0.240529
vn -0.221911 0.975051 -0.00558376
vn -0.291025 0.956645 0.0115708
vn -0.41877 0.907337 -0.0370341
vn -0.194636 0.975198 0.105383
vn -0.245632 0.956932 0.154746
vn -0.380962 0.907719 0.175823
vn -0.115133 0.975219 0.188922
vn -0.134525 0.956879 0.257461
vn -0.240529 0.907981 0.343098
vn -0.00558376 0.975051 0.221911
vn 0.0115708 0.956645 0.291025
vn -0.0370341 0.907337 0.41877
vn 0.105383 0.975198 0.194636
vn 0.154746 0.956932 0.245632
vn 0.175823 0.907719 0.380962
vn 0.188922 0.975219 0.115133
vn 0.257461 0.956879 0.134525
vn 0.343098 0.907981 0.240529
# 317 normals




f  270//282 236//240 233//241
f  267//283 268//285 271//284
